<svg xmlns="http://www.w3.org/2000/svg" width="256" height="256" viewBox="0 0 256 256"><defs><linearGradient id="a" gradientUnits="userSpaceOnUse" x1="35" y1="24" x2="220" y2="220"><stop offset="0" stop-color="#d9ef91" /><stop offset="1" stop-color="#9bc663" /></linearGradient><linearGradient id="b" gradientUnits="userSpaceOnUse" x1="0" y1="40" x2="0" y2="200"><stop offset="0" stop-color="#fff" /><stop offset="1" stop-color="#e3eff6" /></linearGradient></defs><ellipse cx="128" cy="230" rx="79" ry="12" fill="#344968" opacity=".09" /><path d="M107 55q-18 13-16 41c-3 20-49 45-45 83 7 64 159 64 163 0 2-43-48-65-49-86-2-41-28-51-53-38z" fill="url(#a)" /><path d="m128 79 8-41" stroke="#8b7658" stroke-width="9" stroke-linecap="round" /><path d="M136 58q12-45 65-26-8 40-65 26" fill="#73b781" /><path d="m150 51 29-12" stroke="#a1d69b" stroke-width="3" /><path d="M77 121q5-21 24-23" stroke="#fff" stroke-opacity=".45" stroke-width="11" stroke-linecap="round" /></svg>
