<svg xmlns="http://www.w3.org/2000/svg" width="256" height="256" viewBox="0 0 256 256"><defs><linearGradient id="body" gradientUnits="userSpaceOnUse" x1="20" y1="10" x2="225" y2="246"><stop offset="0" stop-color="#F8BDD0"/><stop offset=".48" stop-color="#F8BDD0"/><stop offset="1" stop-color="#D8779C"/></linearGradient><linearGradient id="rim" gradientUnits="userSpaceOnUse" x1="0" y1="0" x2="0" y2="256"><stop offset="0" stop-color="#fff" stop-opacity=".85"/><stop offset=".5" stop-color="#fff" stop-opacity=".18"/><stop offset="1" stop-color="#765674" stop-opacity=".25"/></linearGradient><radialGradient id="shine" gradientUnits="userSpaceOnUse" cx="81" cy="54" r="200"><stop offset="0" stop-color="#fff" stop-opacity=".65"/><stop offset=".55" stop-color="#fff" stop-opacity="0"/><stop offset="1" stop-color="#324e6c" stop-opacity=".16"/></radialGradient></defs><rect x="3" y="3" width="250" height="250" rx="34" fill="#D8779C"/><rect x="6" y="5" width="244" height="242" rx="32" fill="url(#body)"/><rect x="15" y="13" width="226" height="224" rx="26" fill="url(#shine)" stroke="url(#rim)" stroke-width="5"/><path d="M25 32q-13 85 0 184" stroke="#D8779C" stroke-opacity=".06" stroke-width="2" fill="none"/><path d="M56 32q-13 85 0 184" stroke="#D8779C" stroke-opacity=".06" stroke-width="2" fill="none"/><path d="M87 32q-13 85 0 184" stroke="#D8779C" stroke-opacity=".06" stroke-width="2" fill="none"/><path d="M118 32q-13 85 0 184" stroke="#D8779C" stroke-opacity=".06" stroke-width="2" fill="none"/><path d="M149 32q-13 85 0 184" stroke="#D8779C" stroke-opacity=".06" stroke-width="2" fill="none"/><path d="M180 32q-13 85 0 184" stroke="#D8779C" stroke-opacity=".06" stroke-width="2" fill="none"/><path d="M211 32q-13 85 0 184" stroke="#D8779C" stroke-opacity=".06" stroke-width="2" fill="none"/><path d="M29 69V44q0-16 17-16h63" stroke="#fff" stroke-opacity=".55" stroke-width="5" fill="none" stroke-linecap="round"/><path d="M230 186v25q0 18-18 18h-65" stroke="#D8779C" stroke-opacity=".3" stroke-width="4" fill="none" stroke-linecap="round"/><g fill="#fff" opacity=".4"><path d="M117 224c-6-17 6-26 23-23 0 18-10 28-23 23z"/></g></svg>
